<svg id="Layer_1" height="512" viewBox="0 0 512 512" width="512" xmlns="http://www.w3.org/2000/svg" data-name="Layer 1"><path d="m201.67 26.95 14.42 61.09-.28.06h-99.62l-.28-.06 14.42-61.09z" fill="#55d8d8"/><path d="m216.09 87.75-.28.25h-99.62l-.28-.25-4.82 20.25h109.82z" fill="#43a2ff"/><path d="m18 217h476v39h-476z" fill="#edb740"/><path d="m253 256v69.97h-169.02-1.01v-70h170.03z" fill="#b0b5ca"/><path d="m40 256h43v229h-43z" fill="#e8a467"/><path d="m429.03 255.97v70h-176.03v-69.97-.03z" fill="#9ea4b7"/><path d="m429 256h43v229h-43z" fill="#e8a467"/><path d="m200 191h-68a10.2 10.2 0 0 0 -10 9.86v16.14h88v-16.14a10.2 10.2 0 0 0 -10-9.86z" fill="#fb6771"/><path d="m156.19 108.48h19.62v82.81h-19.62z" fill="#d4e1f4"/><path d="m157.33 26.95h-27l-14.42 61.09.28.06h27l-.28-.06z" fill="#81f2ef"/><path d="m116.19 88-.28-.25-4.82 20.25h27l4.761-20z" fill="#8dccff"/><path d="m18 217h27v39h-27z" fill="#ffd685"/><path d="m39.78 255.97h27v229.08h-27z" fill="#f2c199"/><g fill="#284268"><path d="m494.02 211h-278.02v-10.14a16.21 16.21 0 0 0 -16-15.86h-18v-71h38.91a5.7 5.7 0 0 0 5.875-7.017l-19.24-81.383a6.018 6.018 0 0 0 -5.875-4.6h-71.34a5.976 5.976 0 0 0 -5.839 4.6l-19.241 81.515a5.49 5.49 0 0 0 1.135 4.855 5.783 5.783 0 0 0 4.7 2.03h38.915v71h-18a16.21 16.21 0 0 0 -16 15.86v10.14h-98.02a6.247 6.247 0 0 0 -5.98 6.3v38.67a6.009 6.009 0 0 0 5.98 6.03h16.02v223.05a5.774 5.774 0 0 0 5.78 5.95h43.19a5.984 5.984 0 0 0 6.03-5.95v-153.05h334v153.05a5.984 5.984 0 0 0 6.03 5.95h43.19a5.774 5.774 0 0 0 5.78-5.95v-223.05h16.02a6.009 6.009 0 0 0 5.98-6.03v-38.67a6.247 6.247 0 0 0 -5.98-6.3zm-358.941-178h61.842l11.6 49h-85.042zm-16.41 69 1.978-8h90.706l1.978 8zm51.331 12v71h-8v-71zm-42 86.86a4.223 4.223 0 0 1 4-3.86h68a4.223 4.223 0 0 1 4 3.86v10.14h-76zm-51 278.14h-31v-217h31zm346-159h-164v-58h164zm43 159h-31v-217h31zm22-229h-335a6 6 0 0 0 0 12h94v58h-158v-58h32.667a6 6 0 1 0 0-12h-97.667v-27h464z"/><path d="m152 297h27a6 6 0 0 0 0-12h-27a6 6 0 0 0 0 12z"/><path d="m332 297h27a6 6 0 0 0 0-12h-27a6 6 0 0 0 0 12z"/></g></svg>