<?xml version="1.0" encoding="utf-8"?>
<!-- Generator: Adobe Illustrator 23.1.0, SVG Export Plug-In . SVG Version: 6.00 Build 0)  -->
<svg version="1.1" id="圖層_1" xmlns="http://www.w3.org/2000/svg" xmlns:xlink="http://www.w3.org/1999/xlink" x="0px" y="0px"
	 viewBox="0 0 300 300" style="enable-background:new 0 0 300 300;" xml:space="preserve">
<style type="text/css">
	.st0{fill-rule:evenodd;clip-rule:evenodd;fill:#EDEDED;}
	.st1{fill-rule:evenodd;clip-rule:evenodd;fill:#F1E9E4;}
	.st2{fill-rule:evenodd;clip-rule:evenodd;fill:#E1DAD6;}
	.st3{fill-rule:evenodd;clip-rule:evenodd;fill:#CE3117;}
	.st4{fill-rule:evenodd;clip-rule:evenodd;fill:#EA5718;}
	.st5{fill-rule:evenodd;clip-rule:evenodd;fill:#28A1CC;}
	.st6{fill-rule:evenodd;clip-rule:evenodd;fill:#0083AD;}
	.st7{fill-rule:evenodd;clip-rule:evenodd;fill:#ACC20C;}
	.st8{fill-rule:evenodd;clip-rule:evenodd;fill:#97B020;}
	.st9{fill-rule:evenodd;clip-rule:evenodd;fill:#FDD200;}
	.st10{fill-rule:evenodd;clip-rule:evenodd;fill:#E6420C;}
	.st11{fill-rule:evenodd;clip-rule:evenodd;fill:#F9D4D4;}
	.st12{fill-rule:evenodd;clip-rule:evenodd;fill:#FFFFFF;}
	.st13{fill-rule:evenodd;clip-rule:evenodd;fill:#534640;}
	.st14{fill-rule:evenodd;clip-rule:evenodd;fill:#DED4CE;}
	.st15{fill-rule:evenodd;clip-rule:evenodd;fill:#F1EEEC;}
	.st16{fill-rule:evenodd;clip-rule:evenodd;fill:#BDAFA7;}
	.st17{fill-rule:evenodd;clip-rule:evenodd;fill:#D3C7C1;}
	.st18{fill-rule:evenodd;clip-rule:evenodd;fill:#B62918;}
	.st19{fill-rule:evenodd;clip-rule:evenodd;fill:#E03A11;}
	.st20{fill-rule:evenodd;clip-rule:evenodd;fill:#BFD500;}
</style>
<g>
	<path class="st0" d="M159.8,253.13c70.55,0,128.09-3.72,128.09-8.29c0-4.56-57.54-8.29-128.09-8.29s-128.09,3.72-128.09,8.29
		C31.71,249.41,89.26,253.13,159.8,253.13z"/>
	<g>
		<g>
			<rect x="153.55" y="112.76" class="st1" width="67.73" height="35.84"/>
			<g>
				<g>
					<rect x="165.73" y="199.01" class="st1" width="83.57" height="39.24"/>
					<rect x="67.44" y="199.01" class="st2" width="104.7" height="39.24"/>
					<path class="st3" d="M181.1,243.33H66.43c-2.85-8.24-4.57-15.34-4.61-24.17c-0.05-9.15,1.73-16.65,4.58-25.23h114.71v7.13
						H71.56c-1.81,6.17-2.67,12.18-2.64,18.07c0.03,5.8,0.92,11.49,2.61,17.07h109.58L181.1,243.33L181.1,243.33z"/>
					<path class="st4" d="M177.23,193.93h80.56v7.13h-80.56V193.93L177.23,193.93z M177.23,236.2h80.56v7.13h-80.56V236.2z"/>
				</g>
				<polygon class="st3" points="77.25,212.11 92.16,212.11 92.16,233.24 84.71,222.67 77.25,233.24 				"/>
			</g>
			<g>
				<rect x="83.51" y="156" class="st2" width="71.51" height="33.57"/>
				<rect x="149.53" y="156" class="st1" width="89.59" height="33.57"/>
				<path class="st5" d="M141.86,193.93h98.12c2.44-7.05,3.92-13.12,3.95-20.69c0.04-7.82-1.48-14.25-3.92-21.58h-98.15v6.1h93.74
					c1.55,5.28,2.28,10.43,2.26,15.46c-0.02,4.96-0.79,9.83-2.24,14.61h-93.76V193.93z"/>
				<path class="st6" d="M145.17,151.66H76.25v6.1h68.93V151.66L145.17,151.66z M145.17,187.82H76.25v6.1h68.93V187.82z"/>
				<polygon class="st5" points="230.73,167.21 217.97,167.21 217.97,185.29 224.35,176.25 230.73,185.29 				"/>
			</g>
			<path class="st7" d="M227.52,151.66H86.58c-2.44-7.05-3.91-13.12-3.95-20.69c-0.04-7.82,1.48-14.25,3.92-21.58h140.97v6.1h-54.87
				c-1.55,5.28-2.28,10.43-2.26,15.46c0.02,4.96,0.79,9.83,2.24,14.61h54.9V151.66z"/>
			<path class="st8" d="M167.62,151.66H86.58c-2.44-7.05-3.91-13.12-3.95-20.69c-0.04-7.82,1.48-14.25,3.92-21.58h81.07
				c-2.44,7.34-3.96,13.76-3.92,21.58c0.04,7.54,1.5,13.58,3.92,20.61V151.66z"/>
			<path class="st9" d="M96.66,148.46c-1.71-5.72-2.72-11.2-2.75-17.47c-0.03-6.54,1.02-12.38,2.77-18.4h-7.79
				c-1.9,6.08-3.09,11.82-3.05,18.37c0.03,6.29,1.18,11.71,3.05,17.5L96.66,148.46L96.66,148.46z"/>
			<path class="st9" d="M118.38,148.46c-1.71-5.72-2.72-11.2-2.75-17.47c-0.03-6.54,1.02-12.38,2.77-18.4H99.85
				c-1.9,6.08-3.09,11.82-3.05,18.37c0.03,6.29,1.18,11.71,3.05,17.5L118.38,148.46L118.38,148.46z"/>
		</g>
		<g>
			<path class="st3" d="M175.53,61.42L175.53,61.42c8.91,0,16.2,7.29,16.2,16.2v5.46c0,8.91-7.29,16.2-16.2,16.2l0,0
				c-8.91,0-16.2-7.29-16.2-16.2v-5.46C159.34,68.71,166.62,61.42,175.53,61.42L175.53,61.42z M175.53,68.58
				c-4.97,0-9.04,4.07-9.04,9.04v5.46c0,4.97,4.07,9.04,9.04,9.04l0,0c4.97,0,9.04-4.07,9.04-9.04v-5.46
				C184.58,72.65,180.51,68.58,175.53,68.58L175.53,68.58z"/>
			<path class="st10" d="M132.4,48.52h40.26c2.33,0,4.24,1.91,4.24,4.24v52.38c0,2.33-1.91,4.24-4.24,4.24H132.4
				c-2.33,0-4.24-1.91-4.24-4.24V52.75C128.16,50.42,130.06,48.52,132.4,48.52z"/>
			<path class="st11" d="M131.4,48h42.25c1.94,0,3.53,1.59,3.53,3.53v5.65h-49.31v-5.65C127.87,49.59,129.46,48,131.4,48z"/>
			<polygon class="st0" points="139.74,73.85 147.65,73.85 151.8,78 151.8,88.83 135.6,88.83 135.6,78 			"/>
			<rect x="143.23" y="48" class="st12" width="0.94" height="25.85"/>
		</g>
		<path class="st13" d="M153.48,123.84h57.8c3.51,0,6.74,2.87,7.16,6.38l13.03,106.72c0.43,3.51-2.09,6.38-5.6,6.38h-57.8
			c-3.51,0-6.74-2.87-7.16-6.38l-13.03-106.72C147.44,126.71,149.96,123.84,153.48,123.84z"/>
		<path class="st14" d="M156.99,128.62h57.59c0.93,0,1.79,0.76,1.9,1.7l13.01,106.53c0.11,0.93-0.56,1.7-1.49,1.7h-57.59
			c-0.93,0-1.79-0.76-1.9-1.7l-13.01-106.53C155.39,129.39,156.06,128.62,156.99,128.62z"/>
		<path class="st15" d="M178.35,128.62h30.89l-41.31,103.41l-7.23-59.22L178.35,128.62L178.35,128.62z M217.9,141.85l-38.63,96.69
			h22.98l21.03-52.64L217.9,141.85z"/>
		<path class="st16" d="M159.62,134.97c18.14,0,36.28,0,54.43,0c0.05,0.41,0.1,0.83,0.15,1.24c-18.14,0-36.28,0-54.43,0
			C159.72,135.8,159.67,135.38,159.62,134.97L159.62,134.97z M159.22,131.64h54.43l0.15,1.24h-54.43L159.22,131.64L159.22,131.64z
			 M171.81,234.82h54.43l0.15,1.24h-54.43L171.81,234.82L171.81,234.82z M171.41,231.49c18.14,0,36.28,0,54.43,0
			c0.05,0.41,0.1,0.83,0.15,1.24c-18.14,0-36.29,0-54.43,0C171.51,232.32,171.46,231.9,171.41,231.49L171.41,231.49z M171,228.16
			c18.14,0,36.28,0,54.43,0c0.05,0.41,0.1,0.83,0.15,1.24c-18.14,0-36.29,0-54.43,0C171.11,228.99,171.05,228.57,171,228.16
			L171,228.16z M170.59,224.83c18.14,0,36.29,0,54.43,0c0.05,0.41,0.1,0.83,0.15,1.24c-18.14,0-36.28,0-54.43,0
			C170.7,225.66,170.65,225.25,170.59,224.83L170.59,224.83z M170.19,221.5c18.14,0,36.29,0,54.43,0c0.05,0.41,0.1,0.83,0.15,1.24
			c-18.14,0-36.28,0-54.43,0C170.29,222.33,170.24,221.92,170.19,221.5L170.19,221.5z M169.78,218.18c18.14,0,36.28,0,54.43,0
			c0.05,0.41,0.1,0.83,0.15,1.24c-18.14,0-36.29,0-54.43,0C169.89,219,169.83,218.59,169.78,218.18L169.78,218.18z M169.37,214.85
			c18.14,0,36.29,0,54.43,0c0.05,0.41,0.1,0.83,0.15,1.24c-18.14,0-36.29,0-54.43,0C169.48,215.68,169.43,215.26,169.37,214.85
			L169.37,214.85z M168.97,211.52c18.14,0,36.29,0,54.43,0c0.05,0.41,0.1,0.83,0.15,1.24c-18.14,0-36.28,0-54.43,0
			C169.07,212.35,169.02,211.93,168.97,211.52L168.97,211.52z M168.56,208.19c18.14,0,36.29,0,54.43,0c0.05,0.41,0.1,0.83,0.15,1.24
			c-18.14,0-36.29,0-54.43,0C168.67,209.02,168.61,208.61,168.56,208.19L168.56,208.19z M168.16,204.86c18.14,0,36.28,0,54.43,0
			c0.05,0.41,0.1,0.83,0.15,1.24c-18.14,0-36.29,0-54.43,0C168.26,205.69,168.21,205.28,168.16,204.86L168.16,204.86z
			 M167.75,201.54c18.14,0,36.29,0,54.43,0c0.05,0.41,0.1,0.83,0.15,1.24c-18.14,0-36.29,0-54.43,0
			C167.85,202.37,167.8,201.95,167.75,201.54L167.75,201.54z M167.34,198.21c18.14,0,36.29,0,54.43,0c0.05,0.41,0.1,0.83,0.15,1.24
			c-18.14,0-36.28,0-54.43,0C167.45,199.03,167.39,198.62,167.34,198.21L167.34,198.21z M166.94,194.88c18.14,0,36.29,0,54.43,0
			c0.05,0.41,0.1,0.83,0.15,1.24c-18.14,0-36.29,0-54.43,0C167.04,195.7,166.99,195.29,166.94,194.88L166.94,194.88z M166.53,191.55
			c18.14,0,36.28,0,54.43,0c0.05,0.41,0.1,0.83,0.15,1.24c-18.14,0-36.29,0-54.43,0C166.63,192.38,166.58,191.96,166.53,191.55
			L166.53,191.55z M166.12,188.22c18.14,0,36.29,0,54.43,0c0.05,0.41,0.1,0.83,0.15,1.24c-18.14,0-36.29,0-54.43,0
			C166.23,189.05,166.17,188.63,166.12,188.22L166.12,188.22z M165.72,184.89c18.14,0,36.29,0,54.43,0c0.05,0.41,0.1,0.83,0.15,1.24
			c-18.14,0-36.28,0-54.43,0C165.82,185.72,165.77,185.31,165.72,184.89L165.72,184.89z M165.31,181.56c18.14,0,36.29,0,54.43,0
			c0.05,0.41,0.1,0.83,0.15,1.24c-18.14,0-36.29,0-54.43,0C165.41,182.39,165.36,181.98,165.31,181.56L165.31,181.56z
			 M164.91,178.24c18.14,0,36.28,0,54.43,0c0.05,0.41,0.1,0.83,0.15,1.24c-18.14,0-36.29,0-54.43,0
			C165.01,179.06,164.96,178.65,164.91,178.24L164.91,178.24z M164.5,174.91c18.14,0,36.29,0,54.43,0c0.05,0.41,0.1,0.83,0.15,1.24
			c-18.14,0-36.28,0-54.43,0C164.6,175.74,164.55,175.32,164.5,174.91L164.5,174.91z M164.09,171.58c18.14,0,36.29,0,54.43,0
			c0.05,0.41,0.1,0.83,0.15,1.24c-18.14,0-36.28,0-54.43,0C164.19,172.41,164.14,171.99,164.09,171.58L164.09,171.58z
			 M163.69,168.25c18.14,0,36.28,0,54.43,0c0.05,0.41,0.1,0.83,0.15,1.24c-18.14,0-36.29,0-54.43,0
			C163.79,169.08,163.74,168.67,163.69,168.25L163.69,168.25z M163.28,164.92c18.14,0,36.28,0,54.43,0c0.05,0.41,0.1,0.83,0.15,1.24
			c-18.14,0-36.29,0-54.43,0C163.38,165.75,163.33,165.34,163.28,164.92L163.28,164.92z M162.87,161.6c18.14,0,36.29,0,54.43,0
			c0.05,0.41,0.1,0.83,0.15,1.24c-18.14,0-36.28,0-54.43,0C162.97,162.42,162.92,162.01,162.87,161.6L162.87,161.6z M162.47,158.27
			c18.14,0,36.29,0,54.43,0c0.05,0.41,0.1,0.83,0.15,1.24c-18.14,0-36.28,0-54.43,0C162.57,159.09,162.52,158.68,162.47,158.27
			L162.47,158.27z M162.06,154.94c18.14,0,36.28,0,54.43,0c0.05,0.41,0.1,0.83,0.15,1.24c-18.14,0-36.29,0-54.43,0
			C162.16,155.76,162.11,155.35,162.06,154.94L162.06,154.94z M161.65,151.61c18.14,0,36.28,0,54.43,0c0.05,0.41,0.1,0.83,0.15,1.24
			c-18.14,0-36.29,0-54.43,0C161.75,152.44,161.7,152.02,161.65,151.61L161.65,151.61z M161.25,148.28c18.14,0,36.28,0,54.43,0
			c0.05,0.41,0.1,0.83,0.15,1.24c-18.14,0-36.28,0-54.43,0C161.35,149.11,161.3,148.69,161.25,148.28L161.25,148.28z M160.84,144.95
			c18.14,0,36.28,0,54.43,0c0.05,0.41,0.1,0.83,0.15,1.24c-18.14,0-36.29,0-54.43,0C160.94,145.78,160.89,145.37,160.84,144.95
			L160.84,144.95z M160.44,141.62c18.14,0,36.28,0,54.43,0c0.05,0.41,0.1,0.83,0.15,1.24c-18.14,0-36.29,0-54.43,0
			C160.53,142.45,160.48,142.04,160.44,141.62L160.44,141.62z M160.03,138.3c18.14,0,36.28,0,54.43,0c0.05,0.41,0.1,0.83,0.15,1.24
			c-18.14,0-36.29,0-54.43,0C160.13,139.13,160.08,138.71,160.03,138.3z"/>
		<path class="st17" d="M175.82,134.97h30.89l-0.49,1.24h-30.89L175.82,134.97L175.82,134.97z M208.04,131.64l-0.49,1.24h-30.89
			l0.49-1.24H208.04L208.04,131.64z M205.38,138.3l-0.49,1.24h-30.9l0.5-1.24H205.38L205.38,138.3z M204.05,141.62l-0.49,1.24h-30.9
			l0.5-1.24H204.05L204.05,141.62z M202.72,144.95l-0.5,1.24h-30.9l0.5-1.24H202.72L202.72,144.95z M201.39,148.28l-0.49,1.24H170
			l0.49-1.24H201.39L201.39,148.28z M200.06,151.61l-0.5,1.24h-30.89l0.49-1.24H200.06L200.06,151.61z M198.73,154.94l-0.49,1.24
			h-30.89l0.49-1.24H198.73L198.73,154.94z M197.41,158.27l-0.49,1.24h-30.89l0.49-1.24H197.41L197.41,158.27z M196.07,161.6
			l-0.49,1.24h-30.9l0.5-1.24H196.07L196.07,161.6z M194.74,164.92l-0.49,1.24h-30.82l-0.02-0.15l0.44-1.1H194.74L194.74,164.92z
			 M193.42,168.25l-0.5,1.24h-29.08c-0.05-0.41-0.1-0.83-0.15-1.24H193.42L193.42,168.25z M192.08,171.58l-0.49,1.24h-27.34
			c-0.05-0.41-0.1-0.83-0.15-1.24H192.08L192.08,171.58z M190.76,174.91l-0.5,1.24h-25.61c-0.05-0.41-0.1-0.83-0.15-1.24H190.76
			L190.76,174.91z M189.42,178.24l-0.49,1.24h-23.87c-0.05-0.41-0.1-0.83-0.15-1.24H189.42L189.42,178.24z M188.09,181.56
			l-0.49,1.24h-22.13c-0.05-0.41-0.1-0.83-0.15-1.24H188.09L188.09,181.56z M186.77,184.89l-0.49,1.24h-20.4
			c-0.05-0.41-0.1-0.83-0.15-1.24H186.77L186.77,184.89z M185.43,188.22l-0.49,1.24h-18.66c-0.05-0.41-0.1-0.83-0.15-1.24H185.43
			L185.43,188.22z M184.1,191.55l-0.49,1.24h-16.93c-0.05-0.41-0.1-0.83-0.15-1.24H184.1L184.1,191.55z M182.78,194.88l-0.5,1.24
			h-15.19c-0.05-0.41-0.1-0.83-0.15-1.24H182.78L182.78,194.88z M181.44,198.21l-0.5,1.24h-13.45c-0.05-0.41-0.1-0.83-0.15-1.24
			H181.44L181.44,198.21z M180.12,201.54l-0.49,1.24h-11.72c-0.05-0.41-0.1-0.83-0.15-1.24H180.12L180.12,201.54z M178.79,204.86
			l-0.49,1.24h-9.98c-0.05-0.41-0.1-0.83-0.15-1.24H178.79L178.79,204.86z M177.45,208.19l-0.49,1.24h-8.24
			c-0.05-0.41-0.1-0.83-0.15-1.24H177.45L177.45,208.19z M176.13,211.52l-0.49,1.24h-6.51c-0.05-0.41-0.1-0.83-0.15-1.24H176.13
			L176.13,211.52z M174.8,214.85l-0.5,1.24h-4.77c-0.05-0.41-0.1-0.83-0.15-1.24H174.8L174.8,214.85z M173.47,218.18l-0.5,1.24
			h-3.04c-0.05-0.41-0.1-0.83-0.15-1.24H173.47L173.47,218.18z M172.14,221.5l-0.49,1.24h-1.3c-0.05-0.41-0.1-0.83-0.15-1.24H172.14
			L172.14,221.5z M170.81,224.83l-0.16,0.4l-0.05-0.4H170.81L170.81,224.83z M220.98,191.68l-0.44,1.11h-22.98l0.49-1.24h22.91
			L220.98,191.68L220.98,191.68z M219.69,194.88l-0.49,1.24h-22.98l0.5-1.24H219.69L219.69,194.88z M218.37,198.21l-0.49,1.24
			h-22.98l0.49-1.24H218.37L218.37,198.21z M217.04,201.54l-0.49,1.24h-22.98l0.49-1.24H217.04L217.04,201.54z M215.7,204.86
			l-0.49,1.24h-22.98l0.49-1.24H215.7L215.7,204.86z M214.38,208.19l-0.49,1.24H190.9l0.49-1.24H214.38L214.38,208.19z
			 M213.05,211.52l-0.5,1.24h-22.98l0.49-1.24H213.05L213.05,211.52z M211.72,214.85l-0.5,1.24h-22.98l0.49-1.24H211.72
			L211.72,214.85z M210.39,218.18l-0.49,1.24h-22.98l0.49-1.24H210.39L210.39,218.18z M209.06,221.5l-0.49,1.24h-22.98l0.49-1.24
			H209.06L209.06,221.5z M207.73,224.83l-0.49,1.24h-22.98l0.5-1.24H207.73L207.73,224.83z M206.4,228.16l-0.49,1.24h-22.98
			l0.49-1.24H206.4L206.4,228.16z M205.07,231.49l-0.5,1.24h-22.98l0.49-1.24H205.07L205.07,231.49z M203.74,234.82l-0.49,1.24
			h-22.98l0.49-1.24H203.74L203.74,234.82z M198.88,189.46l0.49-1.24h21.18c0.05,0.41,0.1,0.83,0.15,1.24H198.88L198.88,189.46z
			 M200.21,186.14l0.49-1.24h19.44c0.05,0.41,0.1,0.83,0.15,1.24H200.21L200.21,186.14z M201.54,182.81l0.5-1.24h17.7
			c0.05,0.41,0.1,0.83,0.15,1.24H201.54L201.54,182.81z M202.87,179.48l0.5-1.24h15.97c0.05,0.41,0.1,0.83,0.15,1.24H202.87
			L202.87,179.48z M204.2,176.15l0.5-1.24h14.23c0.05,0.41,0.1,0.83,0.15,1.24H204.2L204.2,176.15z M205.52,172.82l0.49-1.24h12.49
			c0.05,0.41,0.1,0.83,0.15,1.24H205.52L205.52,172.82z M206.86,169.49l0.49-1.24h10.76c0.05,0.41,0.1,0.83,0.15,1.24H206.86
			L206.86,169.49z M208.19,166.16l0.49-1.24h9.02c0.05,0.41,0.1,0.83,0.15,1.24H208.19L208.19,166.16z M209.51,162.83l0.49-1.24
			h7.29c0.05,0.41,0.1,0.83,0.15,1.24H209.51L209.51,162.83z M210.85,159.51l0.49-1.24h5.55c0.05,0.41,0.1,0.83,0.15,1.24H210.85
			L210.85,159.51z M212.17,156.18l0.5-1.24h3.81c0.05,0.41,0.1,0.83,0.15,1.24H212.17L212.17,156.18z M213.51,152.85l0.5-1.24h2.08
			c0.05,0.41,0.1,0.83,0.15,1.24H213.51L213.51,152.85z M214.84,149.52l0.49-1.24h0.35c0.05,0.41,0.1,0.83,0.15,1.24H214.84z"/>
		<g>
			<path class="st3" d="M146.69,189.8c1.69,0,3.38,0.25,5.02,0.72c5.04,1.45,9.72,1.44,14.76,0c1.65-0.47,3.34-0.72,5.02-0.72
				c11.82,0,19.54,12.22,17.23,27.3c-2.31,15.08-13.76,27.3-25.58,27.3c-1.41,0-2.77-0.18-4.05-0.51c-1.28,0.33-2.64,0.51-4.05,0.51
				c-11.82,0-23.28-12.22-25.58-27.3C127.15,202.02,134.86,189.8,146.69,189.8z"/>
			<path class="st18" d="M164.72,190.97c0.58-0.13,1.17-0.28,1.76-0.45c1.65-0.47,3.34-0.72,5.02-0.72
				c11.82,0,19.54,12.22,17.23,27.3c-2.31,15.08-13.76,27.3-25.58,27.3c-1.41,0-2.77-0.18-4.05-0.51c-1.28,0.33-2.64,0.51-4.05,0.51
				c-5.7,0-11.32-2.84-15.86-7.47c6.94,3.36,15.21,5.05,19.61-1.96c0.16,0.24,0.33,0.47,0.52,0.69c1.59,1.93,3.76,2.93,6.26,2.86
				c2.5-0.07,4.62-1.17,6.11-3.18c4.54-6.15,5.97-14.69,2.91-26.73c-1.34-5.91-5.39-8.57-11.62-8.62c-2.41,0.53-4.94,0.73-7.41,0.73
				c-6.96,0-12.61-1.71-12.61-3.81s5.65-3.81,12.61-3.81c2.95,0,5.66,0.31,7.81,0.82C164.43,193.26,164.98,192.34,164.72,190.97
				L164.72,190.97z"/>
			<path class="st19" d="M147.51,232.66c-17.07-1.32-20.04-34.25-7.27-31.5C147.26,202.68,159.76,227.21,147.51,232.66z"/>
			<path class="st8" d="M157.18,196.76c6.46-20.83,1.19-33.57-22.95-33.29C141.88,174.57,138.12,192.29,157.18,196.76z"/>
			<path class="st20" d="M157.18,196.76c-4.8-15.47-0.89-24.94,17.05-24.73C168.55,180.28,171.34,193.45,157.18,196.76z"/>
		</g>
	</g>
</g>
</svg>
