<?xml version="1.0" encoding="utf-8"?>
<!-- Generator: Adobe Illustrator 23.1.0, SVG Export Plug-In . SVG Version: 6.00 Build 0)  -->
<svg version="1.1" id="Capa_1" xmlns="http://www.w3.org/2000/svg" xmlns:xlink="http://www.w3.org/1999/xlink" x="0px" y="0px"
	 viewBox="0 0 124.6 124.6" style="enable-background:new 0 0 124.6 124.6;" xml:space="preserve">
<style type="text/css">
	.st0{fill:#FFFFFF;}
</style>
<g>
	<path class="st0" d="M62.7,0L62.7,0c-0.1,0-0.3,0-0.4,0s-0.3,0-0.4,0v0C35.1,0.4,13.6,22.3,13.6,49.1c0,36.2,42.5,70.6,48.8,75.5
		c6.2-4.9,48.8-39.3,48.8-75.5C111.1,22.3,89.5,0.4,62.7,0z M62.7,70.3c-14,0-25.4-11.4-25.4-25.4c0-14,11.4-25.4,25.4-25.4
		s25.4,11.4,25.4,25.4C88.1,58.9,76.7,70.3,62.7,70.3z"/>
</g>
</svg>
