<?xml version="1.0" encoding="utf-8"?>
<!-- Generator: Adobe Illustrator 23.1.0, SVG Export Plug-In . SVG Version: 6.00 Build 0)  -->
<svg version="1.1" xmlns="http://www.w3.org/2000/svg" xmlns:xlink="http://www.w3.org/1999/xlink" x="0px" y="0px"
	 viewBox="0 0 946 136" style="enable-background:new 0 0 946 136;" xml:space="preserve">
<style type="text/css">
	.st0{fill:#9ADBCE;}
</style>
<g id="Layer_2">
	<g id="Layer_4">
	</g>
	<g id="Layer_5">
	</g>
</g>
<g id="Layer_6">
</g>
<g id="Layer_3">
	<g>
		<g>
			<path class="st0" d="M216.44,16.83c-12.85-7.43-26.04-7.75-29.47-0.7c-3.43,7.04,4.21,18.78,17.06,26.21
				c9.9,5.72,19.99,7.22,25.68,4.39c-4.49-5.05-19.38-21.02-32.23-26.14c0,0,18.26,4.42,35.67,23.09c0.13-0.21,0.24-0.42,0.35-0.64
				C236.93,36,229.29,24.27,216.44,16.83z"/>
		</g>
		<g>
			<path class="st0" d="M286.32,15.07c-2.61-7.29-14.88-8.03-27.4-1.65c-12.52,6.38-20.56,17.47-17.95,24.76
				c0.08,0.23,0.17,0.45,0.27,0.66c17.66-17.22,34.96-20.17,34.96-20.17c-12.34,4.08-27.44,18.81-32.01,23.48
				c5.05,3.27,14.53,2.59,24.18-2.33C280.9,33.45,288.93,22.36,286.32,15.07z"/>
		</g>
		<g>
			<path class="st0" d="M234.15,68.83h6.59c0.5-11.25,0.44-30.62-5.07-39.7C235.67,29.14,237.12,52.69,234.15,68.83z"/>
		</g>
	</g>
	<g>
		<g>
			<path class="st0" d="M323.71,16.83c-12.85-7.43-26.04-7.75-29.47-0.7c-3.43,7.04,4.21,18.78,17.06,26.21
				c9.9,5.72,19.99,7.22,25.68,4.39c-4.49-5.05-19.38-21.02-32.23-26.14c0,0,18.26,4.42,35.67,23.09c0.13-0.21,0.24-0.42,0.35-0.64
				C344.2,36,336.56,24.27,323.71,16.83z"/>
		</g>
		<g>
			<path class="st0" d="M393.59,15.07c-2.61-7.29-14.88-8.03-27.4-1.65c-12.52,6.38-20.56,17.47-17.95,24.76
				c0.08,0.23,0.17,0.45,0.27,0.66c17.66-17.22,34.96-20.17,34.96-20.17c-12.34,4.08-27.44,18.81-32.01,23.48
				c5.05,3.27,14.53,2.59,24.18-2.33C388.17,33.45,396.2,22.36,393.59,15.07z"/>
		</g>
		<g>
			<path class="st0" d="M341.42,68.83h6.59c0.5-11.25,0.44-30.62-5.07-39.7C342.94,29.14,344.39,52.69,341.42,68.83z"/>
		</g>
	</g>
	<g>
		<g>
			<path class="st0" d="M430.99,16.83c-12.85-7.43-26.04-7.75-29.47-0.7c-3.43,7.04,4.21,18.78,17.06,26.21
				c9.9,5.72,19.99,7.22,25.68,4.39c-4.49-5.05-19.38-21.02-32.23-26.14c0,0,18.26,4.42,35.67,23.09c0.13-0.21,0.24-0.42,0.35-0.64
				C451.47,36,443.83,24.27,430.99,16.83z"/>
		</g>
		<g>
			<path class="st0" d="M500.87,15.07c-2.61-7.29-14.88-8.03-27.4-1.65c-12.52,6.38-20.56,17.47-17.95,24.76
				c0.08,0.23,0.17,0.45,0.27,0.66c17.66-17.22,34.96-20.17,34.96-20.17c-12.34,4.08-27.44,18.81-32.01,23.48
				c5.05,3.27,14.53,2.59,24.18-2.33C495.44,33.45,503.48,22.36,500.87,15.07z"/>
		</g>
		<g>
			<path class="st0" d="M448.69,68.83h6.59c0.5-11.25,0.44-30.62-5.07-39.7C450.22,29.14,451.66,52.69,448.69,68.83z"/>
		</g>
	</g>
	<g>
		<g>
			<path class="st0" d="M538.26,16.83c-12.85-7.43-26.04-7.75-29.47-0.7c-3.43,7.04,4.21,18.78,17.06,26.21
				c9.9,5.72,19.99,7.22,25.68,4.39c-4.49-5.05-19.38-21.02-32.23-26.14c0,0,18.26,4.42,35.67,23.09c0.13-0.21,0.24-0.42,0.35-0.64
				C558.75,36,551.11,24.27,538.26,16.83z"/>
		</g>
		<g>
			<path class="st0" d="M608.14,15.07c-2.61-7.29-14.88-8.03-27.4-1.65c-12.52,6.38-20.56,17.47-17.95,24.76
				c0.08,0.23,0.17,0.45,0.27,0.66c17.66-17.22,34.96-20.17,34.96-20.17c-12.34,4.08-27.44,18.81-32.01,23.48
				c5.05,3.27,14.53,2.59,24.18-2.33C602.71,33.45,610.75,22.36,608.14,15.07z"/>
		</g>
		<g>
			<path class="st0" d="M555.96,68.83h6.59c0.5-11.25,0.44-30.62-5.07-39.7C557.49,29.14,558.94,52.69,555.96,68.83z"/>
		</g>
	</g>
	<g>
		<g>
			<path class="st0" d="M645.53,16.83c-12.85-7.43-26.04-7.75-29.47-0.7c-3.43,7.04,4.21,18.78,17.06,26.21
				c9.9,5.72,19.99,7.22,25.68,4.39c-4.49-5.05-19.38-21.02-32.23-26.14c0,0,18.26,4.42,35.67,23.09c0.13-0.21,0.24-0.42,0.35-0.64
				C666.02,36,658.38,24.27,645.53,16.83z"/>
		</g>
		<g>
			<path class="st0" d="M715.41,15.07c-2.61-7.29-14.88-8.03-27.4-1.65c-12.52,6.38-20.56,17.47-17.95,24.76
				c0.08,0.23,0.17,0.45,0.27,0.66C688,21.62,705.3,18.67,705.3,18.67c-12.34,4.08-27.44,18.81-32.01,23.48
				c5.05,3.27,14.53,2.59,24.18-2.33C709.99,33.45,718.02,22.36,715.41,15.07z"/>
		</g>
		<g>
			<path class="st0" d="M663.24,68.83h6.59c0.5-11.25,0.44-30.62-5.07-39.7C664.76,29.14,666.21,52.69,663.24,68.83z"/>
		</g>
	</g>
	<g>
		<g>
			<path class="st0" d="M752.8,16.83c-12.85-7.43-26.04-7.75-29.47-0.7c-3.43,7.04,4.21,18.78,17.06,26.21
				c9.9,5.72,19.99,7.22,25.68,4.39c-4.49-5.05-19.38-21.02-32.23-26.14c0,0,18.26,4.42,35.67,23.09c0.13-0.21,0.24-0.42,0.35-0.64
				C773.29,36,765.65,24.27,752.8,16.83z"/>
		</g>
		<g>
			<path class="st0" d="M822.68,15.07c-2.61-7.29-14.88-8.03-27.4-1.65c-12.52,6.38-20.56,17.47-17.95,24.76
				c0.08,0.23,0.17,0.45,0.27,0.66c17.66-17.22,34.96-20.17,34.96-20.17c-12.34,4.08-27.44,18.81-32.01,23.48
				c5.05,3.27,14.53,2.59,24.18-2.33C817.26,33.45,825.29,22.36,822.68,15.07z"/>
		</g>
		<g>
			<path class="st0" d="M770.51,68.83h6.59c0.5-11.25,0.44-30.62-5.07-39.7C772.04,29.14,773.48,52.69,770.51,68.83z"/>
		</g>
	</g>
	<g>
		<g>
			<path class="st0" d="M860.08,16.83c-12.85-7.43-26.04-7.75-29.47-0.7c-3.43,7.04,4.21,18.78,17.06,26.21
				c9.9,5.72,19.99,7.22,25.68,4.39c-4.49-5.05-19.38-21.02-32.23-26.14c0,0,18.26,4.42,35.67,23.09c0.13-0.21,0.24-0.42,0.35-0.64
				C880.56,36,872.93,24.27,860.08,16.83z"/>
		</g>
		<g>
			<path class="st0" d="M929.96,15.07c-2.61-7.29-14.88-8.03-27.4-1.65c-12.52,6.38-20.56,17.47-17.95,24.76
				c0.08,0.23,0.17,0.45,0.27,0.66c17.66-17.22,34.96-20.17,34.96-20.17c-12.34,4.08-27.44,18.81-32.01,23.48
				c5.05,3.27,14.53,2.59,24.18-2.33C924.53,33.45,932.57,22.36,929.96,15.07z"/>
		</g>
		<g>
			<path class="st0" d="M877.78,68.83h6.59c0.5-11.25,0.44-30.62-5.07-39.7C879.31,29.14,880.75,52.69,877.78,68.83z"/>
		</g>
	</g>
	<g>
		<g>
			<path class="st0" d="M216.44,76.59c-12.85-7.43-26.04-7.75-29.47-0.7c-3.43,7.04,4.21,18.78,17.06,26.21
				c9.9,5.72,19.99,7.22,25.68,4.39c-4.49-5.05-19.38-21.02-32.23-26.14c0,0,18.26,4.42,35.67,23.09c0.13-0.21,0.24-0.42,0.35-0.64
				C236.93,95.75,229.29,84.02,216.44,76.59z"/>
		</g>
		<g>
			<path class="st0" d="M286.32,74.82c-2.61-7.29-14.88-8.03-27.4-1.65c-12.52,6.38-20.56,17.47-17.95,24.76
				c0.08,0.23,0.17,0.45,0.27,0.66c17.66-17.22,34.96-20.17,34.96-20.17c-12.34,4.08-27.44,18.81-32.01,23.48
				c5.05,3.27,14.53,2.59,24.18-2.33C280.9,93.2,288.93,82.12,286.32,74.82z"/>
		</g>
		<g>
			<path class="st0" d="M234.15,128.59h6.59c0.5-11.25,0.44-30.62-5.07-39.7C235.67,88.89,237.12,112.44,234.15,128.59z"/>
		</g>
	</g>
	<g>
		<g>
			<path class="st0" d="M65.11,53.16c-18.64-10.78-37.77-11.23-42.74-1.02c-4.97,10.22,6.11,27.24,24.75,38.01
				c14.36,8.3,29,10.47,37.25,6.37c-6.52-7.33-28.11-30.49-46.75-37.92c0,0,26.48,6.41,51.74,33.5c0.18-0.3,0.35-0.61,0.51-0.93
				C94.82,80.96,83.74,63.94,65.11,53.16z"/>
		</g>
		<g>
			<path class="st0" d="M166.47,50.6c-3.79-10.58-21.58-11.65-39.74-2.39c-18.16,9.26-29.82,25.34-26.03,35.91
				c0.12,0.33,0.25,0.65,0.4,0.96c25.62-24.98,50.71-29.26,50.71-29.26c-17.9,5.92-39.8,27.28-46.44,34.06
				c7.32,4.75,21.08,3.75,35.07-3.38C158.6,77.26,170.26,61.18,166.47,50.6z"/>
		</g>
		<g>
			<path class="st0" d="M90.79,128.59h9.56c0.73-16.32,0.63-44.42-7.35-57.59C93,71,95.1,105.17,90.79,128.59z"/>
		</g>
	</g>
	<g>
		<g>
			<path class="st0" d="M323.71,76.59c-12.85-7.43-26.04-7.75-29.47-0.7c-3.43,7.04,4.21,18.78,17.06,26.21
				c9.9,5.72,19.99,7.22,25.68,4.39c-4.49-5.05-19.38-21.02-32.23-26.14c0,0,18.26,4.42,35.67,23.09c0.13-0.21,0.24-0.42,0.35-0.64
				C344.2,95.75,336.56,84.02,323.71,76.59z"/>
		</g>
		<g>
			<path class="st0" d="M393.59,74.82c-2.61-7.29-14.88-8.03-27.4-1.65c-12.52,6.38-20.56,17.47-17.95,24.76
				c0.08,0.23,0.17,0.45,0.27,0.66c17.66-17.22,34.96-20.17,34.96-20.17c-12.34,4.08-27.44,18.81-32.01,23.48
				c5.05,3.27,14.53,2.59,24.18-2.33C388.17,93.2,396.2,82.12,393.59,74.82z"/>
		</g>
		<g>
			<path class="st0" d="M341.42,128.59h6.59c0.5-11.25,0.44-30.62-5.07-39.7C342.94,88.89,344.39,112.44,341.42,128.59z"/>
		</g>
	</g>
	<g>
		<g>
			<path class="st0" d="M430.99,76.59c-12.85-7.43-26.04-7.75-29.47-0.7c-3.43,7.04,4.21,18.78,17.06,26.21
				c9.9,5.72,19.99,7.22,25.68,4.39c-4.49-5.05-19.38-21.02-32.23-26.14c0,0,18.26,4.42,35.67,23.09c0.13-0.21,0.24-0.42,0.35-0.64
				C451.47,95.75,443.83,84.02,430.99,76.59z"/>
		</g>
		<g>
			<path class="st0" d="M500.87,74.82c-2.61-7.29-14.88-8.03-27.4-1.65c-12.52,6.38-20.56,17.47-17.95,24.76
				c0.08,0.23,0.17,0.45,0.27,0.66c17.66-17.22,34.96-20.17,34.96-20.17c-12.34,4.08-27.44,18.81-32.01,23.48
				c5.05,3.27,14.53,2.59,24.18-2.33C495.44,93.2,503.48,82.12,500.87,74.82z"/>
		</g>
		<g>
			<path class="st0" d="M448.69,128.59h6.59c0.5-11.25,0.44-30.62-5.07-39.7C450.22,88.89,451.66,112.44,448.69,128.59z"/>
		</g>
	</g>
	<g>
		<g>
			<path class="st0" d="M538.26,76.59c-12.85-7.43-26.04-7.75-29.47-0.7c-3.43,7.04,4.21,18.78,17.06,26.21
				c9.9,5.72,19.99,7.22,25.68,4.39c-4.49-5.05-19.38-21.02-32.23-26.14c0,0,18.26,4.42,35.67,23.09c0.13-0.21,0.24-0.42,0.35-0.64
				C558.75,95.75,551.11,84.02,538.26,76.59z"/>
		</g>
		<g>
			<path class="st0" d="M608.14,74.82c-2.61-7.29-14.88-8.03-27.4-1.65c-12.52,6.38-20.56,17.47-17.95,24.76
				c0.08,0.23,0.17,0.45,0.27,0.66c17.66-17.22,34.96-20.17,34.96-20.17c-12.34,4.08-27.44,18.81-32.01,23.48
				c5.05,3.27,14.53,2.59,24.18-2.33C602.71,93.2,610.75,82.12,608.14,74.82z"/>
		</g>
		<g>
			<path class="st0" d="M555.96,128.59h6.59c0.5-11.25,0.44-30.62-5.07-39.7C557.49,88.89,558.94,112.44,555.96,128.59z"/>
		</g>
	</g>
	<g>
		<g>
			<path class="st0" d="M645.53,76.59c-12.85-7.43-26.04-7.75-29.47-0.7c-3.43,7.04,4.21,18.78,17.06,26.21
				c9.9,5.72,19.99,7.22,25.68,4.39c-4.49-5.05-19.38-21.02-32.23-26.14c0,0,18.26,4.42,35.67,23.09c0.13-0.21,0.24-0.42,0.35-0.64
				C666.02,95.75,658.38,84.02,645.53,76.59z"/>
		</g>
		<g>
			<path class="st0" d="M715.41,74.82c-2.61-7.29-14.88-8.03-27.4-1.65c-12.52,6.38-20.56,17.47-17.95,24.76
				c0.08,0.23,0.17,0.45,0.27,0.66C688,81.38,705.3,78.43,705.3,78.43c-12.34,4.08-27.44,18.81-32.01,23.48
				c5.05,3.27,14.53,2.59,24.18-2.33C709.99,93.2,718.02,82.12,715.41,74.82z"/>
		</g>
		<g>
			<path class="st0" d="M663.24,128.59h6.59c0.5-11.25,0.44-30.62-5.07-39.7C664.76,88.89,666.21,112.44,663.24,128.59z"/>
		</g>
	</g>
	<g>
		<g>
			<path class="st0" d="M752.8,76.59c-12.85-7.43-26.04-7.75-29.47-0.7c-3.43,7.04,4.21,18.78,17.06,26.21
				c9.9,5.72,19.99,7.22,25.68,4.39c-4.49-5.05-19.38-21.02-32.23-26.14c0,0,18.26,4.42,35.67,23.09c0.13-0.21,0.24-0.42,0.35-0.64
				C773.29,95.75,765.65,84.02,752.8,76.59z"/>
		</g>
		<g>
			<path class="st0" d="M822.68,74.82c-2.61-7.29-14.88-8.03-27.4-1.65c-12.52,6.38-20.56,17.47-17.95,24.76
				c0.08,0.23,0.17,0.45,0.27,0.66c17.66-17.22,34.96-20.17,34.96-20.17c-12.34,4.08-27.44,18.81-32.01,23.48
				c5.05,3.27,14.53,2.59,24.18-2.33C817.26,93.2,825.29,82.12,822.68,74.82z"/>
		</g>
		<g>
			<path class="st0" d="M770.51,128.59h6.59c0.5-11.25,0.44-30.62-5.07-39.7C772.04,88.89,773.48,112.44,770.51,128.59z"/>
		</g>
	</g>
	<g>
		<g>
			<path class="st0" d="M860.08,76.59c-12.85-7.43-26.04-7.75-29.47-0.7c-3.43,7.04,4.21,18.78,17.06,26.21
				c9.9,5.72,19.99,7.22,25.68,4.39c-4.49-5.05-19.38-21.02-32.23-26.14c0,0,18.26,4.42,35.67,23.09c0.13-0.21,0.24-0.42,0.35-0.64
				C880.56,95.75,872.93,84.02,860.08,76.59z"/>
		</g>
		<g>
			<path class="st0" d="M929.96,74.82c-2.61-7.29-14.88-8.03-27.4-1.65c-12.52,6.38-20.56,17.47-17.95,24.76
				c0.08,0.23,0.17,0.45,0.27,0.66c17.66-17.22,34.96-20.17,34.96-20.17c-12.34,4.08-27.44,18.81-32.01,23.48
				c5.05,3.27,14.53,2.59,24.18-2.33C924.53,93.2,932.57,82.12,929.96,74.82z"/>
		</g>
		<g>
			<path class="st0" d="M877.78,128.59h6.59c0.5-11.25,0.44-30.62-5.07-39.7C879.31,88.89,880.75,112.44,877.78,128.59z"/>
		</g>
	</g>
</g>
</svg>
